<svg width="522" height="328" viewBox="0 0 522 328" fill="none" xmlns="http://www.w3.org/2000/svg">
<path opacity="0.1" d="M39.8828 249.444C55.4018 249.444 67.9825 244.998 67.9825 239.514C67.9825 234.03 55.4018 229.584 39.8828 229.584C24.3638 229.584 11.7831 234.03 11.7831 239.514C11.7831 244.998 24.3638 249.444 39.8828 249.444Z" fill="black"/>
<path opacity="0.1" d="M493.836 290.5C509.355 290.5 521.936 286.054 521.936 280.57C521.936 275.086 509.355 270.64 493.836 270.64C478.317 270.64 465.737 275.086 465.737 280.57C465.737 286.054 478.317 290.5 493.836 290.5Z" fill="black"/>
<path d="M492.7 281.979C492.7 281.979 500.193 256.632 491.289 237.975C487.496 230.173 486.353 221.36 488.029 212.857C488.857 208.826 490.054 204.879 491.607 201.065" stroke="#535461" stroke-width="2" stroke-miterlimit="10"/>
<path d="M486.062 189.279C486.062 192.382 491.719 201.394 491.719 201.394C491.719 201.394 497.377 192.388 497.377 189.279C497.377 187.787 496.78 186.355 495.719 185.3C494.657 184.245 493.218 183.652 491.716 183.652C490.215 183.652 488.775 184.245 487.714 185.3C486.652 186.355 486.056 187.787 486.056 189.279H486.062Z" fill="#7FD12A"/>
<path d="M476.708 206.489C478.406 209.096 488.085 213.602 488.085 213.602C488.085 213.602 487.91 202.983 486.212 200.376C485.808 199.756 485.285 199.221 484.673 198.802C484.062 198.383 483.373 198.088 482.646 197.934C481.92 197.779 481.17 197.768 480.439 197.902C479.708 198.036 479.011 198.311 478.388 198.713C477.764 199.114 477.226 199.634 476.804 200.242C476.383 200.85 476.086 201.534 475.93 202.256C475.775 202.979 475.764 203.724 475.899 204.45C476.033 205.177 476.31 205.869 476.714 206.489H476.708Z" fill="#7FD12A"/>
<path d="M477.114 235.889C479.905 237.286 490.545 236.324 490.545 236.324C490.545 236.324 485 227.244 482.209 225.847C480.869 225.176 479.316 225.061 477.891 225.527C476.466 225.994 475.285 227.004 474.61 228.336C473.934 229.668 473.818 231.212 474.288 232.628C474.757 234.045 475.774 235.218 477.114 235.889Z" fill="#7FD12A"/>
<path d="M482.465 258.071C484.963 259.933 495.628 260.753 495.628 260.753C495.628 260.753 491.707 250.872 489.197 249.029C487.99 248.141 486.479 247.767 484.994 247.987C483.51 248.208 482.175 249.006 481.282 250.205C480.389 251.404 480.012 252.906 480.234 254.382C480.456 255.857 481.259 257.184 482.465 258.071Z" fill="#7FD12A"/>
<path d="M499.962 214.204C497.72 216.37 487.273 218.611 487.273 218.611C487.273 218.611 489.834 208.302 492.075 206.136C493.152 205.096 494.6 204.524 496.1 204.546C497.601 204.567 499.032 205.18 500.077 206.25C501.123 207.32 501.699 208.759 501.677 210.251C501.655 211.743 501.038 213.164 499.962 214.204Z" fill="#7FD12A"/>
<path d="M505.888 240.215C503.097 241.612 492.456 240.65 492.456 240.65C492.456 240.65 498.001 231.57 500.792 230.204C502.132 229.533 503.686 229.418 505.111 229.884C506.536 230.351 507.716 231.361 508.392 232.693C509.068 234.025 509.183 235.569 508.714 236.985C508.244 238.402 507.228 239.575 505.888 240.246V240.215Z" fill="#7FD12A"/>
<path d="M508.155 266.289C505.657 268.151 494.991 268.97 494.991 268.97C494.991 268.97 498.913 259.089 501.423 257.246C502.63 256.359 504.141 255.984 505.626 256.205C507.11 256.425 508.445 257.223 509.338 258.422C510.231 259.621 510.607 261.124 510.385 262.599C510.164 264.074 509.361 265.402 508.155 266.289Z" fill="#7FD12A"/>
<path d="M39.8953 239.589C39.8953 239.589 55.9371 185.518 36.898 145.672C28.9052 128.958 26.2826 110.202 29.948 92.0664C31.7151 83.4652 34.2714 75.0429 37.5849 66.9053" stroke="#535461" stroke-width="2" stroke-miterlimit="10"/>
<path d="M25.7393 41.738C25.7393 48.3665 37.8159 67.5942 37.8159 67.5942C37.8159 67.5942 49.8863 48.3541 49.8863 41.738C49.8863 38.5545 48.6139 35.5014 46.3491 33.2503C44.0843 30.9993 41.0126 29.7346 37.8097 29.7346C34.6068 29.7346 31.535 30.9993 29.2702 33.2503C27.0054 35.5014 25.7331 38.5545 25.7331 41.738H25.7393Z" fill="#7FD12A"/>
<path d="M5.77604 78.4618C9.40402 84.0476 30.0542 93.6429 30.0542 93.6429C30.0542 93.6429 29.6795 70.9767 26.0515 65.4157C24.2767 62.8251 21.5529 61.0272 18.4621 60.4062C15.3713 59.7852 12.1587 60.3904 9.51089 62.0925C6.86308 63.7946 4.99009 66.4585 4.29219 69.515C3.59429 72.5715 4.12685 75.778 5.77604 78.4494V78.4618Z" fill="#7FD12A"/>
<path d="M6.64401 141.222C12.6011 144.207 35.3119 142.147 35.3119 142.147C35.3119 142.147 23.4476 122.77 17.5217 119.803C16.1055 119.093 14.5625 118.668 12.9808 118.55C11.3991 118.433 9.80968 118.627 8.30324 119.12C6.79681 119.613 5.40288 120.397 4.20107 121.426C2.99925 122.454 2.01307 123.708 1.29883 125.116C0.584587 126.524 0.15628 128.057 0.0383568 129.629C-0.0795664 131.201 0.115206 132.781 0.611552 134.279C1.61397 137.302 3.78391 139.807 6.64401 141.24V141.222Z" fill="#7FD12A"/>
<path d="M18.04 188.559C23.4039 192.5 46.1397 194.281 46.1397 194.281C46.1397 194.281 37.7722 173.179 32.4021 169.257C29.8268 167.364 26.6005 166.565 23.4328 167.036C20.2651 167.508 17.4155 169.211 15.511 171.77C13.6065 174.33 12.803 177.537 13.2773 180.685C13.7515 183.834 15.4647 186.666 18.04 188.559Z" fill="#7FD12A"/>
<path d="M55.4126 94.9028C50.6294 99.5204 28.337 104.306 28.337 104.306C28.337 104.306 33.7945 82.2974 38.5777 77.6798C40.8756 75.4576 43.9675 74.2337 47.1732 74.2773C50.379 74.321 53.4359 75.6286 55.6717 77.9125C57.9074 80.1964 59.1388 83.2696 59.0949 86.4559C59.051 89.6422 57.7354 92.6806 55.4375 94.9028H55.4126Z" fill="#7FD12A"/>
<path d="M67.6679 150.705C61.7108 153.69 39 151.629 39 151.629C39 151.629 50.8643 132.253 56.7902 129.286C58.2064 128.576 59.7494 128.15 61.3311 128.033C62.9128 127.916 64.5023 128.11 66.0087 128.603C67.5151 129.096 68.909 129.88 70.1109 130.908C71.3127 131.937 72.2989 133.191 73.0131 134.599C73.7273 136.006 74.1556 137.54 74.2736 139.112C74.3915 140.684 74.1967 142.264 73.7004 143.761C73.204 145.259 72.4158 146.644 71.3808 147.839C70.3457 149.033 69.0841 150.013 67.6679 150.723V150.705Z" fill="#7FD12A"/>
<path d="M72.8968 206.105C67.5329 210.046 44.7971 211.827 44.7971 211.827C44.7971 211.827 53.1646 190.725 58.5348 186.802C61.11 184.909 64.3363 184.111 67.504 184.582C70.6717 185.053 73.5212 186.756 75.4258 189.316C77.3303 191.876 78.1338 195.082 77.6595 198.231C77.1853 201.379 75.4721 204.212 72.8968 206.105Z" fill="#7FD12A"/>
<path d="M236.755 106.211L201.956 101.73C200.544 101.55 199.458 101.016 199.495 100.551C199.558 100.085 200.744 99.868 202.187 100.073L236.912 105.069C237.867 105.206 238.591 105.566 238.548 105.882C238.504 106.18 237.705 106.335 236.755 106.211Z" fill="#6C63FF"/>
<path d="M236.974 106.801L202.068 103.213C200.65 103.071 199.445 103.331 199.402 103.797C199.358 104.262 200.488 104.752 201.899 104.877L236.868 107.98C237.829 108.067 238.616 107.881 238.647 107.564C238.672 107.229 237.929 106.9 236.974 106.801Z" fill="#6C63FF"/>
<path d="M289.339 132.899L324.133 128.418C325.544 128.238 326.631 127.704 326.593 127.239C326.531 126.773 325.344 126.556 323.902 126.761L289.177 131.757C288.222 131.893 287.497 132.253 287.541 132.57C287.585 132.868 288.384 133.023 289.339 132.899Z" fill="#6C63FF"/>
<path d="M289.114 133.489L324.021 129.901C325.438 129.758 326.643 130.019 326.687 130.485C326.731 130.95 325.6 131.44 324.189 131.565L289.221 134.668C288.259 134.755 287.472 134.568 287.441 134.252C287.416 133.917 288.159 133.588 289.114 133.489Z" fill="#6C63FF"/>
<path d="M174.237 170.045H165.751V290.984H174.237V170.045Z" fill="#40414D"/>
<path d="M359.582 170.045H351.096V290.984H359.582V170.045Z" fill="#40414D"/>
<path d="M162.51 160.201H358.583C362.227 160.201 365.721 161.64 368.297 164.201C370.873 166.761 372.321 170.234 372.321 173.856V175.668H148.772V173.856C148.772 170.234 150.22 166.761 152.796 164.201C155.372 161.64 158.866 160.201 162.51 160.201Z" fill="#DFE6F5"/>
<path opacity="0.1" d="M161.885 160.201H357.959C361.602 160.201 365.096 161.64 367.673 164.201C370.249 166.761 371.696 170.234 371.696 173.856V175.668H148.148V173.856C148.148 170.234 149.595 166.761 152.171 164.201C154.748 161.64 158.242 160.201 161.885 160.201Z" fill="black"/>
<path d="M162.51 157.384H358.583C362.227 157.384 365.721 158.822 368.297 161.383C370.873 163.943 372.321 167.416 372.321 171.038V172.85H148.772V171.038C148.772 167.416 150.22 163.943 152.796 161.383C155.372 158.822 158.866 157.384 162.51 157.384Z" fill="#DFE6F5"/>
<path d="M260.546 147.54C269.923 147.54 277.525 139.985 277.525 130.665C277.525 121.345 269.923 113.789 260.546 113.789C251.17 113.789 243.568 121.345 243.568 130.665C243.568 139.985 251.17 147.54 260.546 147.54Z" fill="#FFD77C" stroke="#FFAB50" stroke-miterlimit="10"/>
<path d="M260.546 144.04C267.978 144.04 274.003 138.051 274.003 130.665C274.003 123.278 267.978 117.29 260.546 117.29C253.115 117.29 247.09 123.278 247.09 130.665C247.09 138.051 253.115 144.04 260.546 144.04Z" fill="#FFD77C" stroke="#FFAB50" stroke-miterlimit="10"/>
<path d="M260.546 140.856C266.209 140.856 270.8 136.293 270.8 130.665C270.8 125.036 266.209 120.474 260.546 120.474C254.884 120.474 250.293 125.036 250.293 130.665C250.293 136.293 254.884 140.856 260.546 140.856Z" fill="#FFD77C" stroke="#FFAB50" stroke-miterlimit="10"/>
<path d="M260.546 136.393C263.73 136.393 266.31 133.828 266.31 130.665C266.31 127.501 263.73 124.936 260.546 124.936C257.363 124.936 254.783 127.501 254.783 130.665C254.783 133.828 257.363 136.393 260.546 136.393Z" fill="#FFD77C" stroke="#FFAB50" stroke-miterlimit="10"/>
<path d="M250.643 156.682C260.02 156.682 267.621 149.127 267.621 139.807C267.621 130.487 260.02 122.931 250.643 122.931C241.266 122.931 233.664 130.487 233.664 139.807C233.664 149.127 241.266 156.682 250.643 156.682Z" fill="#FFD77C" stroke="#FFAB50" stroke-miterlimit="10"/>
<path d="M250.643 153.182C258.075 153.182 264.1 147.194 264.1 139.807C264.1 132.42 258.075 126.432 250.643 126.432C243.211 126.432 237.186 132.42 237.186 139.807C237.186 147.194 243.211 153.182 250.643 153.182Z" fill="#FFD77C" stroke="#FFAB50" stroke-miterlimit="10"/>
<path d="M250.643 149.998C256.306 149.998 260.896 145.435 260.896 139.807C260.896 134.178 256.306 129.616 250.643 129.616C244.98 129.616 240.39 134.178 240.39 139.807C240.39 145.435 244.98 149.998 250.643 149.998Z" fill="#FFD77C" stroke="#FFAB50" stroke-miterlimit="10"/>
<path d="M250.643 145.535C253.826 145.535 256.406 142.971 256.406 139.807C256.406 136.643 253.826 134.078 250.643 134.078C247.46 134.078 244.879 136.643 244.879 139.807C244.879 142.971 247.46 145.535 250.643 145.535Z" fill="#FFD77C" stroke="#FFAB50" stroke-miterlimit="10"/>
<path d="M270.45 156.682C279.827 156.682 287.428 149.127 287.428 139.807C287.428 130.487 279.827 122.931 270.45 122.931C261.073 122.931 253.472 130.487 253.472 139.807C253.472 149.127 261.073 156.682 270.45 156.682Z" fill="#FFD77C" stroke="#FFAB50" stroke-miterlimit="10"/>
<path d="M270.45 153.182C277.882 153.182 283.907 147.194 283.907 139.807C283.907 132.42 277.882 126.432 270.45 126.432C263.018 126.432 256.993 132.42 256.993 139.807C256.993 147.194 263.018 153.182 270.45 153.182Z" fill="#FFD77C" stroke="#FFAB50" stroke-miterlimit="10"/>
<path d="M270.45 149.998C276.113 149.998 280.703 145.435 280.703 139.807C280.703 134.178 276.113 129.616 270.45 129.616C264.787 129.616 260.197 134.178 260.197 139.807C260.197 145.435 264.787 149.998 270.45 149.998Z" fill="#FFD77C" stroke="#FFAB50" stroke-miterlimit="10"/>
<path d="M270.45 145.535C273.633 145.535 276.214 142.971 276.214 139.807C276.214 136.643 273.633 134.078 270.45 134.078C267.267 134.078 264.686 136.643 264.686 139.807C264.686 142.971 267.267 145.535 270.45 145.535Z" fill="#FFD77C" stroke="#FFAB50" stroke-miterlimit="10"/>
<path d="M225.172 134.891H295.915V138.193C295.915 141.453 295.269 144.682 294.013 147.694C292.758 150.706 290.918 153.442 288.599 155.748C286.279 158.053 283.526 159.882 280.496 161.129C277.465 162.377 274.217 163.019 270.937 163.019H250.15C246.869 163.019 243.622 162.377 240.591 161.129C237.561 159.882 234.807 158.053 232.488 155.748C230.168 153.442 228.329 150.706 227.073 147.694C225.818 144.682 225.172 141.453 225.172 138.193V134.891Z" fill="#6C63FF"/>
<path opacity="0.1" d="M289.533 134.885C289.349 142.219 286.289 149.191 281.005 154.314C275.722 159.437 268.633 162.304 261.252 162.305H247.208C249.257 162.77 251.351 163.008 253.453 163.013H267.603C271.32 163.014 275.001 162.288 278.436 160.875C281.871 159.462 284.992 157.391 287.621 154.779C290.251 152.167 292.336 149.065 293.759 145.652C295.182 142.238 295.915 138.58 295.915 134.885H289.533Z" fill="black"/>
<path d="M355.342 270.59V262.155H171.408V270.59H355.342Z" fill="#40414D"/>
<path d="M102.445 232.699H95.0206V299.841H102.445V232.699Z" fill="#40414D"/>
<path d="M161.086 232.699H153.662V299.841H161.086V232.699Z" fill="#40414D"/>
<path d="M167.031 221.633C167.031 226.114 151.745 229.751 132.887 229.751C114.028 229.751 99.4853 226.12 99.4853 221.633C99.4853 217.146 114.028 213.515 132.887 213.515C151.745 213.515 167.031 217.171 167.031 221.633Z" fill="#F6C6CD"/>
<path d="M89.0822 221.627H167.024V228.392C167.024 230.12 166.334 231.778 165.104 233C163.875 234.222 162.207 234.909 160.468 234.909H100.322C97.3411 234.909 94.4822 233.732 92.3743 231.637C90.2664 229.542 89.0822 226.7 89.0822 223.737V221.627Z" fill="#40414D"/>
<path d="M75.8462 143.996L77.4542 143.636C78.5851 143.382 79.771 143.585 80.7511 144.201C81.7312 144.816 82.4252 145.793 82.6805 146.917L102.147 232.632L99.7102 233.179C97.6651 233.637 95.5203 233.27 93.7477 232.157C91.9751 231.044 90.7199 229.277 90.2582 227.244L72.5327 149.194C72.406 148.636 72.3913 148.059 72.4894 147.496C72.5875 146.933 72.7964 146.394 73.1043 145.912C73.4121 145.429 73.8127 145.011 74.2832 144.682C74.7537 144.354 75.2849 144.121 75.8462 143.996Z" fill="#40414D"/>
<path d="M419.89 301.033H427.315V233.891H419.89V301.033Z" fill="#40414D"/>
<path d="M361.249 301.033H368.674V233.891H361.249V301.033Z" fill="#40414D"/>
<path d="M355.317 222.825C355.317 227.306 370.604 230.943 389.462 230.943C408.32 230.943 422.863 227.312 422.863 222.825C422.863 218.337 408.313 214.688 389.462 214.688C370.61 214.688 355.317 218.344 355.317 222.825Z" fill="#F6C6CD"/>
<path d="M422.013 236.107H361.868C360.129 236.107 358.461 235.42 357.231 234.198C356.002 232.976 355.311 231.318 355.311 229.59V222.825H433.253V224.935C433.253 227.898 432.069 230.739 429.961 232.835C427.853 234.93 424.994 236.107 422.013 236.107Z" fill="#40414D"/>
<path d="M422.636 234.37L420.2 233.823L439.669 148.096C439.924 146.972 440.618 145.995 441.598 145.38C442.578 144.764 443.764 144.561 444.895 144.815L446.503 145.176C447.634 145.429 448.617 146.119 449.236 147.093C449.855 148.067 450.06 149.246 449.804 150.37L432.076 228.433C431.615 230.463 430.362 232.229 428.592 233.342C426.822 234.455 424.68 234.825 422.636 234.37Z" fill="#40414D"/>
<path d="M425.279 196.689L427.471 196C427.471 196 423.724 171.125 423.762 148.831C423.762 148.21 423.762 147.546 423.762 146.907C423.806 145.517 423.856 144.139 423.924 142.792C424.012 141.067 424.03 139.422 424.018 137.827C424.224 116.359 415.713 107.291 415.713 107.291C415.713 107.291 405.722 93.1277 399.734 90.3721C399.215 88.7584 398.622 86.6854 398.097 84.2773C398.291 84.1469 398.478 84.0166 398.659 83.8801C401.133 82.0566 403.499 80.0943 405.747 78.0025C408.819 75.1413 411.766 71.6533 411.604 67.7184C411.621 67.3352 411.608 66.9514 411.567 66.5702C410.998 61.8222 406.034 58.2473 404.03 53.7476C402.344 49.9678 402.849 45.7598 401.376 41.9242C399.902 38.0886 394.757 34.5198 390.873 36.5369C389.443 37.2817 388.581 38.5975 387.388 39.5968C384.429 42.0794 379.658 42.309 375.611 41.1794C371.565 40.0498 370.366 35.4446 364.709 35.4322C365.211 35.5996 365.691 35.8268 366.139 36.1087C365.666 36.0296 365.188 35.9881 364.709 35.9846C365.86 36.3465 366.88 37.0321 367.647 37.9584C368.414 38.8848 368.894 40.0122 369.03 41.2042C369.021 41.354 369.004 41.5031 368.98 41.6511C366.72 42.8614 363.747 42.1724 361.037 42.129C358.327 42.0856 355.242 43.4448 355.511 45.6481C355.465 45.8985 355.465 46.1549 355.511 46.4053C355.867 48.0748 358.115 49.3347 358.39 50.8802C358.39 50.9236 358.39 50.9608 358.39 51.0043C353.374 53.4951 347.949 55.0677 342.373 55.6467C342.192 55.6467 342.273 55.864 342.535 56.1805H342.373C341.355 56.286 348.473 61.8781 349.285 62.2442C352.258 63.5848 355.811 64.5717 358.958 65.602L359.233 65.6888C358.172 68.1372 357.626 70.7751 357.628 73.4408C357.628 82.9987 364.54 91.0299 373.901 93.3015C375.649 95.331 377.485 97.5592 379.158 99.7749H379.04C379.04 99.7749 368.281 114 368.624 135.245C368.594 137.908 368.735 140.57 369.049 143.214C362.13 142.823 347.262 141.011 335.953 132.781C320.698 121.69 303.683 125.017 307.229 131.67C310.776 138.323 328.941 143.866 331.87 144.424C332.144 144.474 332.781 144.623 333.693 144.846C330.084 145.523 327.611 146.708 327.761 148.303C328.054 151.351 343.603 161.058 352.988 161.61C359.189 161.976 366.651 163.876 372.539 165.545C373.108 178.299 370.004 182.123 370.004 182.123C370.004 182.123 370.928 182.687 372.458 183.488L371.802 185.35C367.993 187.535 363.298 189.812 359.026 190.731C353.584 191.843 348.293 193.593 343.266 195.944L322.141 206.092C320.254 206.962 318.622 208.296 317.398 209.967C316.175 211.638 315.4 213.592 315.147 215.644C314.685 219.945 315.99 225.32 323.059 229.584C323.496 233.078 325.644 237.156 331.283 240.892C342.21 248.116 370.928 269.758 374.837 272.713C374.912 277.994 374.213 288.589 367.656 290.24C359.439 292.313 366.051 300.17 372.695 299.86C374.272 300.453 375.988 300.578 377.635 300.22C384.678 298.556 410.493 289.669 412.253 276.374C412.327 275.798 412.36 275.217 412.353 274.637C412.456 272.37 411.887 270.124 410.717 268.176C410.993 268.776 411.216 269.399 411.385 270.038C409.25 265.196 404.048 262.155 400.002 260.442C400.002 260.399 400.002 260.349 400.002 260.306C399.378 260.064 398.753 259.865 398.241 259.685C398.251 259.325 398.224 258.966 398.16 258.611L357.678 230.887C357.678 230.887 375.281 216.469 393.47 218.691C411.66 220.913 414.558 217.63 414.558 217.63C414.558 217.63 423.887 208.811 424.823 198.657L425.41 198.502C425.41 198.502 425.367 197.862 425.279 196.689Z" fill="url(#paint0_linear)"/>
<path d="M375.843 268.902C375.843 268.902 377.497 287.006 369.217 289.203C360.937 291.4 368.668 300.176 375.287 298.513C381.906 296.85 406.203 288.086 407.857 274.928C409.512 261.771 391.297 257.37 391.297 257.37L375.843 268.902Z" fill="#B8616E"/>
<path opacity="0.05" d="M375.843 268.902C375.843 268.902 377.497 287.006 369.217 289.203C360.937 291.4 368.668 300.176 375.287 298.513C381.906 296.85 406.203 288.086 407.857 274.928C409.512 261.771 391.297 257.37 391.297 257.37L375.843 268.902Z" fill="black"/>
<path d="M379.171 269.448C379.171 269.448 380.826 287.552 372.546 289.749C364.266 291.946 371.996 300.722 378.615 299.059C385.234 297.396 409.531 288.632 411.186 275.474C412.84 262.317 394.626 257.916 394.626 257.916L379.171 269.448Z" fill="#B8616E"/>
<path opacity="0.1" d="M396.28 258.475L380.838 270C380.838 270 380.907 270.782 380.95 272.03C386.783 270.441 399.49 266.221 399.684 259.617C398.573 259.169 397.437 258.787 396.28 258.475Z" fill="black"/>
<path d="M386.62 100.724H379.995V105.665H386.62V100.724Z" fill="#F8BDC5"/>
<path d="M380.276 180.552C380.276 180.552 369.754 188.77 361.112 190.719C355.974 191.824 350.992 193.556 346.282 195.876L326.406 205.918C324.601 206.821 323.052 208.159 321.903 209.811C320.753 211.462 320.038 213.374 319.824 215.371C319.256 220.957 321.516 228.305 335.004 232.674L377.51 267.791L390.76 256.818L345.495 222.26L380.276 200.86V180.552Z" fill="#758AC8"/>
<path opacity="0.1" d="M380.276 180.552C380.276 180.552 369.754 188.77 361.112 190.719C355.974 191.824 350.992 193.556 346.282 195.876L326.406 205.918C324.601 206.821 323.052 208.159 321.903 209.811C320.753 211.462 320.038 213.374 319.824 215.371C319.256 220.957 321.516 228.305 335.004 232.674L377.51 267.791L390.76 256.818L345.495 222.26L380.276 200.86V180.552Z" fill="black"/>
<path d="M374.2 143.798C374.2 143.798 353.775 144.344 339.419 133.371C325.063 122.398 309.059 125.687 312.369 132.272C315.678 138.857 332.794 144.344 335.554 144.89C338.314 145.436 378.059 156.415 378.059 156.415L374.2 143.798Z" fill="#F8BDC5"/>
<path opacity="0.05" d="M374.2 143.798C374.2 143.798 353.775 144.344 339.419 133.371C325.063 122.398 309.059 125.687 312.369 132.272C315.678 138.857 332.794 144.344 335.554 144.89C338.314 145.436 378.059 156.415 378.059 156.415L374.2 143.798Z" fill="black"/>
<path d="M376.411 175.624L369.786 195.38C369.786 195.38 332.525 218.151 329.484 221.168C327.124 223.514 323.964 232.693 335.004 240.371C346.044 248.048 376.405 272.197 376.405 272.197C376.405 272.197 399.59 267.232 397.935 257.922L359.844 230.49C359.844 230.49 376.405 216.215 393.52 218.418C410.636 220.621 413.396 217.32 413.396 217.32C413.396 217.32 426.647 204.137 422.226 191.538C417.805 178.939 376.411 175.624 376.411 175.624Z" fill="#758AC8"/>
<path d="M368.131 86.2137C368.131 86.2137 386.901 106.515 385.796 112.548C384.691 118.581 400.701 94.9897 400.701 94.9897C400.701 94.9897 395.706 82.9181 396.836 69.7479L368.131 86.2137Z" fill="#F8BDC5"/>
<path opacity="0.1" d="M384.51 104.833C385.79 103.489 387.139 102.211 388.55 101.004C391.374 98.7015 393.966 96.1301 396.287 93.3263C400.152 88.3611 414.501 109.786 414.501 109.786C414.501 109.786 423.331 119.66 422.232 143.258C421.133 166.855 423.612 198.402 423.612 198.402L420.271 199.327C417.457 200.26 414.464 200.53 411.527 200.116C408.59 199.701 405.79 198.613 403.349 196.938C398.94 193.909 393.358 190.731 389.112 190.446C380.832 189.899 373.376 185.232 373.376 185.232C373.376 185.232 376.967 176.729 371.447 149.29C365.927 121.851 379.995 102.351 379.995 102.351C379.995 102.351 381.107 108.321 384.51 104.833Z" fill="black"/>
<path d="M425.542 195.926L422.232 197.024L420.265 197.676C417.451 198.61 414.457 198.88 411.52 198.465C408.583 198.051 405.784 196.962 403.343 195.287C398.94 192.264 393.352 189.08 389.106 188.795C380.838 188.242 371.471 182.21 371.471 182.21C371.471 182.21 376.992 175.078 371.471 147.639C365.951 120.2 380.026 100.724 380.026 100.724C380.026 100.724 381.138 106.664 384.541 103.17C385.819 101.828 387.165 100.551 388.575 99.3466C391.399 97.0443 393.991 94.473 396.312 91.6692C400.177 86.704 414.526 108.129 414.526 108.129C414.526 108.129 423.356 118.003 422.257 141.6C422.138 144.083 422.088 146.64 422.082 149.228C422.001 171.311 425.542 195.926 425.542 195.926Z" fill="#5E52AD"/>
<path opacity="0.1" d="M394.076 142.153L394.626 154.224C394.626 154.224 365.365 155.869 359.295 149.836C353.225 143.804 375.843 167.581 380.838 169.039C385.528 170.411 397.635 171.621 403.986 171.745C405.8 171.803 407.592 171.336 409.144 170.401C410.696 169.465 411.941 168.102 412.728 166.476C413.468 164.876 413.708 163.092 413.415 161.356C412.31 154.224 413.415 138.857 413.415 138.857L394.076 142.153Z" fill="black"/>
<path d="M394.076 141.054L394.626 153.126C394.626 153.126 365.364 154.771 359.295 148.738C353.225 142.705 331.264 144.04 331.695 148.738C331.97 151.754 346.6 161.356 355.423 161.908C364.247 162.46 375.843 166.482 380.838 167.941C385.528 169.312 397.635 170.523 403.986 170.647C405.8 170.705 407.592 170.238 409.144 169.302C410.696 168.367 411.941 167.003 412.728 165.378C413.468 163.778 413.708 161.994 413.415 160.257C412.31 153.126 413.415 137.759 413.415 137.759L394.076 141.054Z" fill="#F8BDC5"/>
<path opacity="0.1" d="M400.701 105.938C400.701 105.938 388.007 107.583 389.661 126.239C391.316 144.896 393.527 146.541 393.527 146.541C393.527 146.541 412.297 144.896 414.501 144.344C416.706 143.791 415.607 123.496 415.607 123.496C415.607 123.496 415.051 105.392 400.701 105.938Z" fill="black"/>
<path d="M400.701 105.392C400.701 105.392 388.007 107.036 389.661 125.693C391.316 144.35 393.527 145.995 393.527 145.995C393.527 145.995 412.297 144.35 414.501 143.798C416.706 143.245 415.607 122.95 415.607 122.95C415.607 122.95 415.051 104.833 400.701 105.392Z" fill="#5E52AD"/>
<path opacity="0.1" d="M396.006 81.5216C395.138 77.177 396.917 75.8364 397.386 70.2754L368.662 86.735C368.662 86.735 371.952 90.2976 375.693 94.8718C377.364 95.292 379.083 95.5005 380.807 95.4924C388.331 95.5234 392.446 87.4922 396.006 81.5216Z" fill="black"/>
<path d="M380.27 94.9649C391.55 94.9649 400.695 85.8756 400.695 74.6634C400.695 63.4513 391.55 54.362 380.27 54.362C368.989 54.362 359.844 63.4513 359.844 74.6634C359.844 85.8756 368.989 94.9649 380.27 94.9649Z" fill="#F8BDC5"/>
<path opacity="0.1" d="M385.421 68.5004C382.299 70.4741 382.256 74.9365 384.266 78.0274C386.277 81.1182 389.743 83.1601 393.077 85.0842C394.045 85.6427 395.113 86.2199 396.199 86.0958C397.035 85.934 397.808 85.5451 398.435 84.9724C400.768 83.1628 402.995 81.2211 405.104 79.157C408.138 76.1903 411.055 72.5346 410.58 68.3949C410.043 63.6966 405.372 60.1589 403.486 55.7088C401.9 51.9849 402.375 47.8079 400.989 44.0034C399.602 40.1988 394.744 36.6797 391.11 38.672C389.768 39.4043 388.956 40.7139 387.832 41.7008C385.047 44.1461 380.557 44.3882 376.748 43.271C372.939 42.1538 371.809 37.5921 366.495 37.5797C369.136 38.5044 370.922 41.2415 370.516 43.7365C368.387 44.9343 365.589 44.2516 363.023 44.2082C360.456 44.1647 357.403 45.5922 357.846 47.8886C358.233 49.7506 360.937 51.1346 360.538 52.9966C355.847 55.4527 350.733 57.0107 345.464 57.5894C344.508 57.6949 351.202 63.2249 351.964 63.5911C354.755 64.9192 358.109 65.8937 361.062 66.9115C369.086 69.661 377.304 70.6416 385.421 68.5004Z" fill="black"/>
<path d="M385.421 67.948C382.299 69.9217 382.256 74.3842 384.266 77.475C386.277 80.5658 389.743 82.6078 393.077 84.5318C394.045 85.0904 395.113 85.6676 396.199 85.5434C397.035 85.3816 397.808 84.9927 398.435 84.42C400.768 82.6104 402.995 80.6687 405.104 78.6046C408.138 75.6378 411.055 71.9822 410.58 67.8425C410.043 63.1442 405.372 59.6065 403.486 55.1564C401.9 51.4325 402.375 47.2556 400.989 43.451C399.602 39.6464 394.744 36.1273 391.11 38.1196C389.768 38.852 388.956 40.1615 387.832 41.1484C385.047 43.5937 380.557 43.8358 376.748 42.7186C372.939 41.6014 371.809 37.0397 366.495 37.0273C369.136 37.952 370.922 40.6891 370.516 43.1841C368.387 44.382 365.589 43.6992 363.023 43.6558C360.456 43.6123 357.403 45.0398 357.846 47.3362C358.233 49.1982 360.937 50.5822 360.538 52.4442C355.847 54.9003 350.733 56.4583 345.464 57.037C344.508 57.1425 351.202 62.6725 351.964 63.0387C354.755 64.3669 358.109 65.3413 361.062 66.3592C369.086 69.1148 377.304 70.0768 385.421 67.948Z" fill="#916168"/>
<path opacity="0.1" d="M409.743 267.375C410.63 269.407 410.939 271.642 410.636 273.836C408.981 287.006 384.691 295.782 378.066 297.421C374.575 298.289 370.772 296.26 369.18 293.821C370.204 296.688 374.612 299.512 378.621 298.519C385.247 296.874 409.537 288.092 411.192 274.934C411.554 272.325 411.045 269.67 409.743 267.375Z" fill="white"/>
<path d="M234.308 282.339C233.814 281.234 231.254 279.08 218.909 278.615C210.454 278.298 207.575 273.861 206.795 269.529C209.574 269.169 211.747 268.672 212.459 267.983C212.459 267.983 212.421 267.785 212.359 267.431L212.459 267.356C211.919 264.232 211.637 261.068 211.616 257.898C211.599 255.185 211.888 252.478 212.477 249.829C212.821 248.078 212.966 246.294 212.908 244.51C212.977 233.959 209.249 215.414 209.249 215.414L208.737 200.004C208.685 198.081 208.114 196.207 207.082 194.58C206.05 192.953 204.596 191.632 202.873 190.756C201.647 190.125 200.289 189.789 198.908 189.775C198.908 189.775 179.338 186.709 161.723 185.04C160.474 184.04 156.072 181.347 145.981 182.892L140.174 165.998C140.127 165.794 140.093 165.586 140.074 165.377C140.28 163.23 141.722 159.996 148.447 159.792L149.852 161.033C149.852 161.033 150.102 160.543 150.521 159.792C158.863 159.699 204.31 159.239 206.651 159.792C209.23 160.412 231.822 155.41 232.472 154.789C241.251 146.28 206.651 150.407 206.651 150.407C203.248 150.96 192.252 150.302 180.987 149.39C186.563 141.079 191.808 112.871 191.808 112.871C191.808 112.871 211.79 102.86 206.008 97.2302C200.226 91.6009 182.773 109.743 182.773 109.743C182.773 109.743 175.673 130.392 172.445 136.648C171.196 139.13 169.578 139.639 168.136 139.354C168.792 138.832 169.216 138.522 169.216 138.522C169.216 138.522 155.017 127.257 153.724 122.882C153.483 122.165 153.165 121.476 152.775 120.827C152.094 116.861 150.902 112.957 147.992 110.357C147.503 109.835 146.963 109.363 146.381 108.948C145.594 108.389 144.701 107.905 143.958 107.297C144.376 105.386 144.863 103.399 145.369 101.475C155.91 100.234 164.102 91.5451 164.102 80.994C164.101 79.4029 163.91 77.8176 163.534 76.2709C165.109 76.374 166.685 76.0704 168.107 75.3896C169.529 74.7088 170.75 73.674 171.652 72.3856C173.781 69.2327 173.712 64.9378 171.926 61.6112C171.188 60.2605 170.221 59.0469 169.066 58.0238C167.226 56.1818 164.982 54.7883 162.51 53.9523C160.368 53.2138 158.001 52.7731 156.303 51.327C155.544 50.3404 154.853 49.3036 154.236 48.2238C153.523 47.1635 152.685 46.1925 151.738 45.3315C148.616 42.1352 144.208 40.1677 139.718 39.2988C134.248 38.2375 128.597 38.6161 123.033 38.9947C120.954 39.1375 118.512 39.5036 117.575 41.3035C116.87 42.6565 117.332 44.2764 117.238 45.7846C116.945 50.5822 111.425 53.2324 106.623 54.393C101.821 55.5536 96.0947 56.5591 93.778 60.7671C91.6736 64.5655 93.1535 69.1707 93.8279 73.4345C94.9512 80.9212 93.2786 88.5576 89.1259 94.9028C87.0153 98.1115 84.2928 100.967 82.6255 104.411C80.7785 108.251 80.3497 112.615 81.4141 116.737C81.7263 117.941 82.1759 119.17 81.9511 120.399C81.6956 121.412 81.1939 122.348 80.49 123.124C77.6186 126.648 74.0451 129.544 69.9939 131.63C65.9427 133.716 61.5013 134.947 56.9487 135.245C57.331 136.505 58.0781 137.625 59.0967 138.466C60.3909 139.738 61.9 140.774 63.5552 141.526C67.9158 143.7 72.5011 145.396 77.2304 146.584C80.415 147.385 83.7433 147.956 86.9841 147.41C90.2249 146.864 93.3846 145.02 94.7146 142.103C95.4889 140.415 95.6013 138.503 96.2882 136.784C97.6557 133.346 101.046 131.118 103.338 128.17C102.566 135.767 102.202 143.399 102.245 151.034C102.245 153.424 102.245 155.577 102.245 157.576C102.245 166.197 101.621 172.143 96.2445 182.911C95.6038 184.043 95.3229 185.341 95.439 186.635C95.3221 187.334 95.3902 188.051 95.6365 188.716C95.8828 189.381 96.299 189.97 96.844 190.427C96.4693 192.575 96.2874 194.751 96.3007 196.931C96.2258 204.776 98.8921 215.309 113.029 217.978L138.2 216.736C138.2 216.736 173.7 209.853 183.378 214.874C184.177 215.043 184.894 215.479 185.408 216.109C185.923 216.739 186.205 217.526 186.207 218.338C186.177 218.859 186.096 219.377 185.964 219.883C185.694 221.509 185.591 223.158 185.658 224.805C185.614 235.356 187.899 259.3 187.899 259.3V269.454C186.288 271.862 184.303 275.425 184.559 278.05C184.559 278.106 184.559 278.168 184.559 278.224C184.559 278.28 184.559 278.379 184.596 278.454C184.634 278.528 184.596 278.59 184.64 278.658C184.684 278.727 184.677 278.789 184.696 278.857C184.715 278.925 184.746 279.006 184.777 279.074C184.808 279.143 184.821 279.186 184.846 279.242C184.871 279.298 184.927 279.403 184.971 279.478L185.046 279.608C185.121 279.727 185.204 279.842 185.296 279.949C188.524 283.673 204.653 290.879 209.823 290.587C215.312 290.277 233.702 291.208 234.351 283.077C234.434 282.835 234.418 282.57 234.308 282.339Z" fill="url(#paint1_linear)"/>
<path d="M188.424 266.624C188.424 266.624 180.931 275.934 184.053 279.658C187.175 283.382 202.786 290.5 207.781 290.209C213.089 289.898 230.886 290.829 231.51 282.761C231.51 282.761 232.759 279.037 216.524 278.416C200.288 277.796 205.284 261.038 205.284 261.038L188.424 266.624Z" fill="#594C76"/>
<path opacity="0.1" d="M99.1294 188.422C99.1294 188.422 91.6362 213.869 114.116 218.213L138.469 216.972C138.469 216.972 172.813 210.145 182.18 215.11C182.18 215.11 185.926 215.731 184.677 220.696C183.428 225.661 186.551 259.176 186.551 259.176V270.348C186.551 270.348 207.781 270.348 210.279 267.865C210.279 267.865 208.406 257.935 210.279 249.866C212.153 241.798 207.157 216.351 207.157 216.351L206.664 201.034C206.627 199.141 206.084 197.292 205.089 195.678C204.095 194.063 202.686 192.741 201.006 191.848C199.825 191.226 198.51 190.894 197.172 190.88C197.172 190.88 154.711 184.053 139.724 185.294C124.738 186.535 99.1294 188.422 99.1294 188.422Z" fill="black"/>
<path d="M99.1294 187.802C99.1294 187.802 91.6362 213.248 114.116 217.593L138.469 216.351C138.469 216.351 172.813 209.524 182.18 214.49C182.18 214.49 185.926 215.11 184.677 220.075C183.428 225.041 186.551 258.556 186.551 258.556V269.727C186.551 269.727 207.781 269.727 210.279 267.245C210.279 267.245 208.406 257.314 210.279 249.246C212.153 241.177 207.157 215.731 207.157 215.731L206.664 200.413C206.627 198.521 206.084 196.672 205.089 195.057C204.095 193.443 202.686 192.121 201.006 191.228C199.825 190.605 198.51 190.273 197.172 190.259C197.172 190.259 154.711 183.432 139.724 184.674C124.738 185.915 99.1294 187.802 99.1294 187.802Z" fill="#8B9CD1"/>
<path d="M163.446 137.529C163.446 137.529 168.442 143.735 171.564 137.529C174.686 131.322 181.555 110.841 181.555 110.841C181.555 110.841 198.415 92.8422 204.035 98.4281C209.655 104.014 190.297 113.944 190.297 113.944C190.297 113.944 183.428 151.804 177.184 152.425C170.94 153.045 161.573 152.425 161.573 152.425L158.451 145.597L163.446 137.529Z" fill="#F8BDC5"/>
<path opacity="0.05" d="M163.446 137.529C163.446 137.529 168.442 143.735 171.564 137.529C174.686 131.322 181.555 110.841 181.555 110.841C181.555 110.841 198.415 92.8422 204.035 98.4281C209.655 104.014 190.297 113.944 190.297 113.944C190.297 113.944 183.428 151.804 177.184 152.425C170.94 153.045 161.573 152.425 161.573 152.425L158.451 145.597L163.446 137.529Z" fill="black"/>
<path d="M140.967 106.497C140.967 106.497 152.207 119.53 153.455 123.875C154.704 128.219 168.442 139.391 168.442 139.391C168.442 139.391 158.451 146.839 160.324 150.563C162.198 154.286 147.211 138.15 147.211 138.15L129.727 112.703L140.967 106.497Z" fill="#EB6475"/>
<path opacity="0.1" d="M140.967 106.497C140.967 106.497 152.207 119.53 153.455 123.875C154.704 128.219 168.442 139.391 168.442 139.391C168.442 139.391 158.451 146.839 160.324 150.563C162.198 154.286 147.211 138.15 147.211 138.15L129.727 112.703L140.967 106.497Z" fill="black"/>
<path d="M148.46 91.6009C148.46 91.6009 142.84 109.6 142.84 116.427C142.84 123.254 119.111 114.565 119.736 110.841C120.36 107.117 133.473 93.4629 134.098 87.877C134.722 82.2912 148.46 91.6009 148.46 91.6009Z" fill="#F8BDC5"/>
<path opacity="0.1" d="M129.727 104.014C129.727 104.014 107.872 98.4281 104.749 130.081C101.627 161.734 107.247 165.458 97.8805 184.698C88.514 203.938 161.573 187.181 161.573 187.181C161.573 187.181 157.827 182.836 145.962 184.698L140.342 167.941C140.342 167.941 138.469 160.493 149.084 160.493C159.7 160.493 154.704 138.77 154.704 138.77C154.704 138.77 149.084 120.151 145.962 118.289C142.84 116.427 137.22 105.255 129.727 104.014Z" fill="black"/>
<path d="M129.727 102.773C129.727 102.773 107.872 97.1868 104.749 128.84C101.627 160.493 107.247 164.217 97.8805 183.457C88.514 202.697 161.573 185.94 161.573 185.94C161.573 185.94 157.827 181.595 145.962 183.457L140.342 166.699C140.342 166.699 138.469 159.252 149.084 159.252C159.7 159.252 154.704 137.529 154.704 137.529C154.704 137.529 149.084 118.909 145.962 117.048C142.84 115.186 137.22 104.014 129.727 102.773Z" fill="#EB6475"/>
<path d="M151.582 147.459C151.582 147.459 197.166 152.425 204.659 151.183C204.659 151.183 238.129 147.087 229.637 155.528C229.012 156.148 207.157 161.114 204.659 160.493C202.162 159.872 149.084 160.493 149.084 160.493L148.46 154.287L151.582 147.459Z" fill="#F8BDC5"/>
<path opacity="0.1" d="M116.614 131.943L149.709 161.734C149.709 161.734 155.953 149.321 157.827 149.321C159.7 149.321 135.347 112.703 135.347 112.703C135.347 112.703 129.102 105.255 125.356 108.979C121.609 112.703 110.369 110.22 116.614 131.943Z" fill="black"/>
<path d="M115.989 130.702L149.084 160.493C149.084 160.493 155.329 148.08 157.202 148.08C159.075 148.08 134.722 111.462 134.722 111.462C134.722 111.462 128.478 104.014 124.731 107.738C120.985 111.462 109.745 108.979 115.989 130.702Z" fill="#EB6475"/>
<path d="M142.84 102.773C154.221 102.773 163.446 93.6028 163.446 82.2912C163.446 70.9796 154.221 61.8098 142.84 61.8098C131.459 61.8098 122.234 70.9796 122.234 82.2912C122.234 93.6028 131.459 102.773 142.84 102.773Z" fill="#F8BDC5"/>
<path opacity="0.1" d="M160.886 77.146C164.383 78.5177 168.667 76.873 170.727 73.7511C172.788 70.6292 172.726 66.3778 170.99 63.0635C169.254 59.7492 166.044 57.3411 162.504 56.0874C160.355 55.3302 157.964 54.8958 156.315 53.3317C155.273 52.3449 154.654 51.0105 153.874 49.8064C150.958 45.2881 145.756 42.6193 140.467 41.5704C135.178 40.5215 129.708 40.8939 124.325 41.2663C122.315 41.409 119.954 41.769 119.043 43.5565C118.362 44.8971 118.805 46.5046 118.718 48.0003C118.437 52.7607 113.098 55.3985 108.434 56.5405C103.769 57.6825 98.3614 58.7562 96.0884 62.9518C94.0527 66.7191 95.5077 71.2871 96.1384 75.5199C97.2169 82.9136 95.6049 90.4472 91.5925 96.7647C89.5506 99.9487 86.9217 102.779 85.3044 106.199C83.5153 110.02 83.1009 114.336 84.1304 118.425C84.4364 119.623 84.8673 120.84 84.655 122.056C84.4102 123.056 83.9261 123.982 83.2437 124.756C80.5071 128.236 77.0662 131.107 73.1435 133.184C69.2208 135.26 64.9035 136.495 60.4705 136.809C61.1824 139.472 63.7738 141.154 66.2403 142.395C70.4491 144.546 74.8847 146.228 79.4659 147.41C82.5444 148.204 85.7665 148.769 88.9011 148.229C92.0358 147.689 95.0893 145.858 96.3944 142.966C97.1437 141.29 97.2561 139.397 97.918 137.684C99.4104 133.842 103.388 131.521 105.524 127.99C107.566 124.613 108.359 124.216 108.877 120.318C109.395 116.421 110.538 112.213 113.76 109.923C117.132 107.521 121.878 107.98 125.624 109.823C129.371 111.667 131.688 110.947 134.816 113.653C140.304 118.391 146.446 122.325 153.056 125.333C152.431 119.921 151.426 113.882 147.005 110.661C145.756 109.736 144.176 109.029 143.514 107.614C142.459 105.361 144.264 102.611 143.446 100.259C142.628 97.9067 139.518 97.0378 138.138 94.9028C136.964 93.0905 137.283 90.6265 138.382 88.7646C139.481 86.9026 141.216 85.5248 142.946 84.2214C144.482 83.067 146.039 81.9395 147.617 80.8389C149.043 79.9397 150.323 78.8306 151.414 77.5495C152.038 76.6992 152.45 74.8372 153.318 74.2352C155.504 72.7332 158.863 76.3578 160.886 77.146Z" fill="black"/>
<path d="M160.262 76.5254C163.759 77.897 168.042 76.2523 170.103 73.1304C172.164 70.0086 172.101 65.7571 170.365 62.4429C168.629 59.1286 165.42 56.7204 161.879 55.4667C159.731 54.7095 157.339 54.2751 155.691 52.7111C154.648 51.7242 154.03 50.3898 153.249 49.1858C150.333 44.6674 145.132 41.9987 139.843 40.9498C134.554 39.9009 129.084 40.2732 123.701 40.6456C121.69 40.7884 119.33 41.1484 118.418 42.9358C117.738 44.2764 118.181 45.8839 118.094 47.3797C117.813 52.1401 112.474 54.7778 107.809 55.9198C103.145 57.0618 97.7369 58.1355 95.464 62.3311C93.4283 66.0985 94.8833 70.6664 95.5139 74.8993C96.5924 82.293 94.9804 89.8265 90.968 96.1441C88.9261 99.328 86.2972 102.158 84.6799 105.578C82.8909 109.4 82.4765 113.716 83.506 117.805C83.812 119.003 84.2428 120.219 84.0305 121.436C83.7858 122.435 83.3017 123.362 82.6193 124.135C79.8826 127.616 76.4418 130.487 72.519 132.563C68.5963 134.639 64.279 135.874 59.8461 136.188C60.5579 138.851 63.1494 140.533 65.6159 141.774C69.8247 143.926 74.2602 145.608 78.8415 146.789C81.9199 147.584 85.142 148.148 88.2767 147.608C91.4114 147.068 94.4649 145.237 95.77 142.345C96.5193 140.669 96.6317 138.777 97.2936 137.064C98.786 133.222 102.764 130.9 104.899 127.369C106.941 123.993 107.734 123.595 108.252 119.698C108.771 115.8 109.913 111.592 113.136 109.302C116.508 106.9 121.253 107.359 125 109.203C128.746 111.046 131.063 110.326 134.192 113.032C139.68 117.771 145.822 121.704 152.431 124.713C151.807 119.301 150.802 113.262 146.381 110.04C145.132 109.116 143.552 108.408 142.89 106.993C141.835 104.74 143.639 101.991 142.821 99.6384C142.003 97.2861 138.894 96.4172 137.514 94.2822C136.34 92.4699 136.658 90.0059 137.757 88.1439C138.856 86.282 140.592 84.9041 142.322 83.6008C143.858 82.4464 145.415 81.3189 146.993 80.2182C148.418 79.319 149.698 78.2099 150.789 76.9288C151.414 76.0785 151.826 74.2166 152.694 73.6145C154.879 72.1126 158.239 75.7372 160.262 76.5254Z" fill="#916168"/>
<g opacity="0.1">
<path opacity="0.1" d="M204.572 265.929C204.619 264.277 204.858 262.636 205.284 261.038L204.972 261.144C204.66 262.719 204.526 264.324 204.572 265.929Z" fill="white"/>
<path opacity="0.1" d="M207.782 288.967C202.786 289.259 187.175 282.14 184.053 278.416C183.643 277.912 183.391 277.299 183.329 276.654C183.237 277.177 183.254 277.713 183.379 278.23C183.503 278.747 183.733 279.232 184.053 279.658C187.175 283.382 202.786 290.5 207.782 290.209C213.089 289.898 230.886 290.829 231.51 282.761C231.557 282.538 231.526 282.306 231.423 282.103C229.993 289.538 212.958 288.663 207.782 288.967Z" fill="white"/>
</g>
<path d="M233.071 103.704H232.447V129.15H233.071V103.704Z" fill="#FFD77C" stroke="#FFAB50" stroke-width="0.25" stroke-miterlimit="10"/>
<path d="M233.696 103.704H233.071V129.15H233.696V103.704Z" fill="#FFD77C" stroke="#FFAB50" stroke-width="0.25" stroke-miterlimit="10"/>
<path d="M234.32 103.704H233.696V129.15H234.32V103.704Z" fill="#FFD77C" stroke="#FFAB50" stroke-width="0.25" stroke-miterlimit="10"/>
<path d="M234.945 103.704H234.32V129.15H234.945V103.704Z" fill="#FFD77C" stroke="#FFAB50" stroke-width="0.25" stroke-miterlimit="10"/>
<path d="M235.569 103.704H234.945V129.15H235.569V103.704Z" fill="#FFD77C" stroke="#FFAB50" stroke-width="0.25" stroke-miterlimit="10"/>
<path d="M236.193 103.704H235.569V129.15H236.193V103.704Z" fill="#FFD77C" stroke="#FFAB50" stroke-width="0.25" stroke-miterlimit="10"/>
<path d="M236.818 103.704H236.193V129.15H236.818V103.704Z" fill="#FFD77C" stroke="#FFAB50" stroke-width="0.25" stroke-miterlimit="10"/>
<defs>
<linearGradient id="paint0_linear" x1="367.1" y1="300.449" x2="367.1" y2="35.4322" gradientUnits="userSpaceOnUse">
<stop stop-color="#808080" stop-opacity="0.25"/>
<stop offset="0.54" stop-color="#808080" stop-opacity="0.12"/>
<stop offset="1" stop-color="#808080" stop-opacity="0.1"/>
</linearGradient>
<linearGradient id="paint1_linear" x1="67741.7" y1="181012" x2="67741.7" y2="78704.7" gradientUnits="userSpaceOnUse">
<stop stop-color="#808080" stop-opacity="0.25"/>
<stop offset="0.54" stop-color="#808080" stop-opacity="0.12"/>
<stop offset="1" stop-color="#808080" stop-opacity="0.1"/>
</linearGradient>
</defs>
</svg>
