<svg width="329" height="270" viewBox="0 0 329 270" fill="none" xmlns="http://www.w3.org/2000/svg">
<g clip-path="url(#clip0)">
<path d="M240.809 222.278C243.422 223.196 246.226 223.426 248.953 222.946C251.68 222.465 254.237 221.291 256.378 219.537C261.831 214.961 263.54 207.424 264.931 200.444L269.046 179.8L260.432 185.73C254.237 189.994 247.903 194.395 243.613 200.571C239.324 206.747 237.452 215.178 240.898 221.861" fill="#E6E6E6"/>
<path d="M241.546 247.272C240.674 240.923 239.777 234.493 240.389 228.076C240.932 222.378 242.671 216.812 246.212 212.248C248.091 209.83 250.378 207.759 252.97 206.126C253.646 205.7 254.268 206.771 253.595 207.195C249.111 210.028 245.642 214.211 243.69 219.142C241.533 224.625 241.187 230.602 241.559 236.427C241.784 239.949 242.26 243.448 242.74 246.943C242.778 247.101 242.754 247.267 242.674 247.409C242.593 247.55 242.462 247.656 242.307 247.704C242.149 247.747 241.98 247.725 241.838 247.644C241.695 247.563 241.59 247.43 241.546 247.272Z" fill="#F2F2F2"/>
<path d="M249.943 236.038C251.064 237.74 252.604 239.125 254.415 240.059C256.226 240.994 258.247 241.446 260.284 241.373C265.519 241.125 269.883 237.472 273.811 234.005L285.431 223.749L277.74 223.381C272.21 223.117 266.537 222.87 261.27 224.575C256.002 226.28 251.144 230.383 250.181 235.833" fill="#E6E6E6"/>
<path d="M239.082 250.921C243.278 243.498 248.146 235.249 256.843 232.612C259.261 231.881 261.797 231.62 264.314 231.841C265.107 231.909 264.909 233.132 264.117 233.063C259.899 232.713 255.688 233.827 252.195 236.216C248.834 238.504 246.216 241.684 244.001 245.056C242.644 247.122 241.429 249.275 240.213 251.425C239.824 252.113 238.689 251.616 239.082 250.921V250.921Z" fill="#F2F2F2"/>
<path d="M135.653 198.774C130.505 200.583 124.977 201.036 119.603 200.09C114.229 199.144 109.19 196.83 104.97 193.371C94.223 184.354 90.8535 169.498 88.1119 155.743C85.4089 142.181 82.7058 128.619 80.0028 115.057L96.9801 126.743C109.189 135.147 121.673 143.82 130.127 155.993C138.58 168.165 142.27 184.782 135.478 197.953" fill="#E6E6E6"/>
<path d="M134.202 248.033C135.92 235.521 137.687 222.848 136.481 210.202C135.411 198.97 131.983 188.001 125.005 179.006C121.301 174.241 116.794 170.158 111.686 166.941C110.355 166.101 109.129 168.211 110.455 169.048C119.292 174.631 126.128 182.876 129.976 192.593C134.226 203.399 134.908 215.179 134.176 226.658C133.733 233.6 132.794 240.497 131.848 247.385C131.774 247.696 131.82 248.024 131.979 248.303C132.137 248.581 132.395 248.789 132.701 248.885C133.013 248.969 133.345 248.927 133.626 248.767C133.907 248.608 134.114 248.344 134.202 248.033Z" fill="#F2F2F2"/>
<path d="M117.651 225.892C115.443 229.247 112.408 231.977 108.839 233.818C105.269 235.66 101.285 236.552 97.271 236.407C86.9543 235.918 78.3535 228.72 70.6112 221.886L47.7109 201.674L62.8671 200.949C73.7665 200.427 84.9472 199.941 95.3285 203.301C105.71 206.661 115.284 214.748 117.182 225.489" fill="#E6E6E6"/>
<path d="M139.058 255.226C130.787 240.596 121.194 224.338 104.053 219.141C99.2864 217.701 94.2888 217.185 89.3289 217.621C87.7657 217.756 88.156 220.165 89.7164 220.03C98.0303 219.34 106.328 221.535 113.213 226.245C119.838 230.753 124.997 237.02 129.363 243.666C132.037 247.737 134.433 251.981 136.829 256.219C137.594 257.574 139.832 256.596 139.058 255.226Z" fill="#F2F2F2"/>
<path d="M75.223 57.1673L4.01307 42.2532L3.08766 42.0598C2.61638 41.9604 2.12659 41.996 1.67463 42.1625C1.22268 42.3289 0.826906 42.6196 0.532829 43.0009C0.238752 43.3822 0.0583193 43.8388 0.012271 44.3181C-0.0337773 44.7974 0.0564373 45.2799 0.272534 45.7103L28.8501 102.866C29.0351 103.233 29.3055 103.551 29.6388 103.792C29.9721 104.033 30.3583 104.19 30.7651 104.251C31.1732 104.312 31.5899 104.272 31.9794 104.136C32.3689 104 32.7194 103.771 33.0006 103.469L52.4906 82.6799C52.6292 82.5283 52.7977 82.407 52.9855 82.3237C53.1733 82.2404 53.3763 82.1968 53.5818 82.1958C53.861 82.1902 54.1365 82.2606 54.3788 82.3995C54.6211 82.5384 54.821 82.7406 54.9572 82.9843L59.0186 90.3886C59.278 90.8823 59.6952 91.2751 60.2037 91.5045C60.7123 91.7338 61.2829 91.7864 61.8249 91.654L61.8448 91.6495C62.3935 91.5299 62.8859 91.2294 63.2431 90.7962C63.6002 90.3631 63.8013 89.8225 63.8139 89.2613L64.5168 72.1099C64.5252 71.8959 64.5774 71.6859 64.6702 71.4929C64.77 71.3018 64.906 71.132 65.0705 70.9928L76.3302 61.6406C76.7003 61.3333 76.9762 60.9279 77.1265 60.4709C77.2767 60.014 77.2951 59.5239 77.1795 59.057C77.0639 58.5901 76.8191 58.1651 76.473 57.8309C76.127 57.4967 75.6938 57.2667 75.223 57.1673V57.1673ZM75.6793 60.8552L64.4197 70.2073C64.273 70.3269 64.1402 70.4626 64.0238 70.6119L3.89359 43.7801C3.84054 43.7559 3.78524 43.7368 3.72849 43.7233C3.49683 43.6651 3.2521 43.6897 3.03663 43.7927C2.82116 43.8958 2.6485 44.0709 2.5485 44.2877C2.44849 44.5046 2.42743 44.7496 2.48897 44.9803C2.55051 45.211 2.69077 45.413 2.8855 45.5513L52.4083 81.4663C52.1588 81.5978 51.934 81.7714 51.7435 81.9793L32.2537 102.769C32.0846 102.949 31.8745 103.085 31.6413 103.167C31.4081 103.248 31.1586 103.272 30.9142 103.237C30.6697 103.201 30.4374 103.107 30.237 102.963C30.0367 102.818 29.8741 102.628 29.7633 102.407L1.18574 45.2509C1.05796 44.9926 1.00532 44.7037 1.03381 44.417C1.0623 44.1303 1.17078 43.8573 1.34687 43.6293C1.52296 43.4012 1.75959 43.2271 2.02981 43.1269C2.30003 43.0267 2.59298 43.0044 2.87526 43.0626L3.82263 43.2613L75.0103 58.1701C75.293 58.2295 75.5532 58.3673 75.7612 58.5677C75.9691 58.7681 76.1164 59.023 76.1862 59.3032C76.2561 59.5833 76.2455 59.8775 76.1559 60.152C76.0662 60.4264 75.9011 60.6701 75.6793 60.8552L75.6793 60.8552Z" fill="#CCCCCC"/>
<path d="M75.223 57.1673L4.01307 42.2532L3.08766 42.0598C2.61638 41.9604 2.12659 41.996 1.67463 42.1625C1.22268 42.3289 0.826906 42.6196 0.532829 43.0009C0.238752 43.3822 0.0583193 43.8388 0.012271 44.3181C-0.0337773 44.7974 0.0564373 45.2799 0.272534 45.7103L28.8501 102.866C29.0351 103.233 29.3055 103.551 29.6388 103.792C29.9721 104.033 30.3583 104.19 30.7651 104.251C31.1732 104.312 31.5899 104.272 31.9794 104.136C32.3689 104 32.7194 103.771 33.0006 103.469L52.4906 82.6799C52.6292 82.5283 52.7977 82.407 52.9855 82.3237C53.1733 82.2404 53.3763 82.1968 53.5818 82.1958C53.861 82.1902 54.1365 82.2606 54.3788 82.3995C54.6211 82.5384 54.821 82.7406 54.9572 82.9843L59.0186 90.3886C59.278 90.8823 59.6952 91.2751 60.2037 91.5045C60.7123 91.7338 61.2829 91.7864 61.8249 91.654L61.8448 91.6495C62.3935 91.5299 62.8859 91.2294 63.2431 90.7962C63.6002 90.3631 63.8013 89.8225 63.8139 89.2613L64.5168 72.1099C64.5252 71.8959 64.5774 71.6859 64.6702 71.4929C64.77 71.3018 64.906 71.132 65.0705 70.9928L76.3302 61.6406C76.7003 61.3333 76.9762 60.9279 77.1265 60.4709C77.2767 60.014 77.2951 59.5239 77.1795 59.057C77.0639 58.5901 76.8191 58.1651 76.473 57.8309C76.127 57.4967 75.6938 57.2667 75.223 57.1673V57.1673ZM75.6793 60.8552L64.4197 70.2073C64.2729 70.3269 64.1401 70.4626 64.0238 70.6119C63.9188 70.7448 63.8284 70.8884 63.754 71.0405C63.676 71.1959 63.6147 71.3593 63.5713 71.5277L63.5725 71.5327C63.5266 71.7082 63.5007 71.8882 63.4951 72.0695L62.7925 89.2209C62.7877 89.558 62.6683 89.8836 62.4539 90.1439C62.2395 90.4043 61.9429 90.5839 61.6128 90.6534L61.6028 90.6556C61.2776 90.7384 60.934 90.709 60.6276 90.5721C60.3212 90.4352 60.0701 90.1989 59.915 89.9014L55.8524 82.4922C55.6431 82.1111 55.3399 81.7898 54.9715 81.5588C54.6031 81.3278 54.1817 81.1947 53.7474 81.1722L53.7425 81.1733C53.6841 81.1708 53.6259 81.1684 53.5688 81.1708C53.1637 81.1734 52.7653 81.2749 52.4083 81.4663C52.1589 81.5978 51.934 81.7713 51.7435 81.9793L32.2537 102.769C32.0846 102.949 31.8745 103.085 31.6413 103.167C31.4081 103.248 31.1586 103.272 30.9142 103.237C30.6697 103.201 30.4374 103.107 30.237 102.963C30.0367 102.818 29.8741 102.628 29.7633 102.407L1.18574 45.2509C1.05796 44.9926 1.00532 44.7037 1.03381 44.417C1.0623 44.1303 1.17078 43.8573 1.34687 43.6293C1.52296 43.4012 1.75959 43.2271 2.02981 43.1269C2.30003 43.0267 2.59298 43.0044 2.87526 43.0626L3.82263 43.2613L75.0103 58.1701C75.293 58.2295 75.5532 58.3673 75.7612 58.5677C75.9691 58.7681 76.1164 59.023 76.1862 59.3032C76.2561 59.5833 76.2455 59.8775 76.1559 60.152C76.0662 60.4264 75.9011 60.6701 75.6793 60.8552L75.6793 60.8552Z" fill="#3F3D56"/>
<path d="M64.2514 70.7122L63.8343 71.6462L63.5725 71.5326L63.5714 71.5276L3.4888 44.7218L53.7426 81.1732L53.7474 81.1721L53.8805 81.2729L53.2822 82.1012L52.4084 81.4662L2.88554 45.5512C2.6908 45.4129 2.55054 45.2109 2.48899 44.9802C2.42745 44.7494 2.44849 44.5045 2.5485 44.2876C2.64851 44.0708 2.82119 43.8957 3.03667 43.7926C3.25215 43.6896 3.49689 43.665 3.72855 43.7232C3.78531 43.7367 3.84061 43.7558 3.89365 43.78L64.0239 70.6118L64.2514 70.7122Z" fill="#3F3D56"/>
<path d="M218.855 142.169L221.454 167.569L221.505 168.09L222.277 175.623L228.62 237.641V237.651L229.853 249.684C229.372 250.33 228.946 251.016 228.579 251.734C227.462 253.939 226.916 256.388 226.991 258.858C227.066 261.329 227.76 263.741 229.009 265.873C232.104 265.096 235.156 264.21 238.165 263.214C244.391 261.167 250.463 258.679 256.335 255.769C255.724 252.409 253.969 249.365 251.368 247.152L244.999 170.657L244.442 163.948L242.626 142.169H218.855Z" fill="#FFB8B8"/>
<path d="M237.069 72.9906C250.203 59.8609 250.203 38.5733 237.069 25.4436C223.935 12.3138 202.64 12.3138 189.506 25.4436C176.372 38.5733 176.372 59.8609 189.506 72.9906C202.64 86.1204 223.935 86.1204 237.069 72.9906Z" fill="#FFB8B8"/>
<path d="M150.601 187.982C150.606 188.049 150.611 188.115 150.616 188.177C150.728 189.488 151.256 190.73 152.124 191.72C152.992 192.71 154.154 193.396 155.44 193.679L205.632 204.638C206.067 204.733 206.511 204.781 206.957 204.781C208.303 204.78 209.612 204.338 210.683 203.523C211.754 202.707 212.528 201.563 212.885 200.265C212.993 199.866 213.11 199.457 213.238 199.033V199.028C214.932 193.28 217.955 185.456 222.277 175.623C223.254 173.398 224.299 171.068 225.413 168.632C225.618 168.182 225.827 167.727 226.032 167.272C228.329 162.286 230.891 156.89 233.72 151.082C235.104 148.244 236.15 145.252 236.835 142.169C238.658 134.031 237.938 125.53 234.774 117.813C234.13 116.242 233.386 114.714 232.549 113.236C229.245 107.414 224.564 102.491 218.916 98.8974C213.267 95.3038 206.823 93.1495 200.148 92.6233C199.089 92.5364 198.036 92.4955 196.977 92.4955C186.386 92.5421 176.22 96.6664 168.592 104.011C164.09 108.374 160.673 113.73 158.611 119.649C158.479 120.022 158.356 120.401 158.233 120.779C156.343 126.768 154.826 132.868 153.69 139.045C153.01 142.711 152.458 146.327 152.013 149.85C150.453 162.497 149.98 175.255 150.601 187.982Z" fill="#BFFC81"/>
<path d="M128.497 252.23C158.991 269.556 194.998 274.444 229.009 265.873C232.104 265.096 235.156 264.21 238.165 263.214C235.495 254.511 232.308 245.975 228.62 237.651V237.641C222.471 223.86 216.824 215.427 214.072 211.705C213.62 211.088 213.322 210.372 213.204 209.617C213.085 208.861 213.15 208.088 213.392 207.363L214.246 204.801C214.571 203.832 214.649 202.797 214.473 201.789C214.297 200.782 213.873 199.835 213.238 199.033V199.028C213.182 198.956 213.121 198.885 213.059 198.813C190.7 173.347 151.721 187.241 151.327 187.384L151.133 187.456L151.01 187.624C150.877 187.809 150.744 187.988 150.616 188.177C140.048 202.981 133.025 225.736 128.497 252.23Z" fill="#2F2E41"/>
<path d="M82.5383 88.2713C82.7064 89.0099 82.8159 89.7606 82.8659 90.5164L141.689 124.44L155.987 116.212L171.229 136.159L147.333 153.184C145.403 154.56 143.078 155.272 140.709 155.214C138.339 155.157 136.052 154.332 134.19 152.864L73.5339 105.028C70.7965 106.041 67.8155 106.197 64.9873 105.475C62.1592 104.753 59.6179 103.187 57.7016 100.986C55.7853 98.785 54.5847 96.0529 54.2595 93.1531C53.9344 90.2533 54.5001 87.3233 55.8814 84.7527C57.2627 82.1822 59.3941 80.0929 61.9922 78.7629C64.5903 77.4328 67.5318 76.925 70.4257 77.307C73.3195 77.689 76.0284 78.9426 78.1921 80.9012C80.3558 82.8598 81.8717 85.4304 82.5383 88.2713Z" fill="#FFB8B8"/>
<path d="M142.59 123.919V123.924C142.803 124.694 143.165 125.415 143.654 126.046L153.691 139.045L158.473 145.248L162.668 150.678C163.209 151.379 163.894 151.955 164.678 152.367C165.461 152.779 166.324 153.018 167.208 153.066C168.092 153.115 168.977 152.972 169.801 152.649C170.624 152.325 171.369 151.827 171.983 151.19L187.217 135.378L193.503 128.848C197.075 126.062 199.396 121.973 199.957 117.479C200.518 112.984 199.273 108.451 196.496 104.873C193.718 101.294 189.634 98.9634 185.14 98.3907C180.645 97.818 176.107 99.0503 172.52 101.818L168.592 104.011L145.526 116.908C144.325 117.582 143.383 118.638 142.851 119.908C142.319 121.178 142.227 122.59 142.59 123.919H142.59Z" fill="#BFFC81"/>
<path d="M209.121 132.07L210.082 162.777L210.087 162.972C210.114 163.857 210.332 164.726 210.726 165.519C211.12 166.312 211.68 167.011 212.368 167.568C213.057 168.126 213.857 168.528 214.716 168.748C215.574 168.967 216.469 169 217.341 168.842L221.505 168.09L222.569 167.896H222.574L226.032 167.272L244.442 163.948L247.966 163.314C248.837 163.156 249.664 162.812 250.39 162.306C251.116 161.8 251.725 161.143 252.175 160.381C252.625 159.619 252.905 158.769 252.997 157.889C253.089 157.009 252.991 156.119 252.708 155.281L242.779 125.893C241.949 121.441 239.387 117.5 235.655 114.934C231.922 112.368 227.324 111.386 222.869 112.204C218.413 113.021 214.464 115.572 211.887 119.296C209.31 123.02 208.315 127.614 209.121 132.07Z" fill="#BFFC81"/>
<path d="M207.964 41.4839C199.32 47.3981 187.97 53.4776 179.141 47.1794C173.344 43.0439 171.518 35.386 173.869 28.6656C178.096 16.5805 189.711 11.26 200.818 7.18176C215.256 1.88006 230.978 -2.33768 245.884 1.45914C260.789 5.25595 273.963 19.6828 271.272 34.8225C269.108 46.9976 257.62 57.1281 259.251 69.3859C260.892 81.7224 274.77 88.2159 287.023 90.4208C299.275 92.6256 312.986 93.334 321.791 102.132C333.024 113.355 330.219 133.415 319.649 145.264C309.08 157.114 293.13 162.485 277.674 166.136C257.196 170.974 235.048 173.517 215.599 165.488C196.151 157.459 181.016 135.846 186.65 115.579C189.03 107.018 194.636 99.7834 200.054 92.74C205.472 85.6966 210.958 78.3312 213.025 69.6898C214.747 62.4885 213.472 54.1275 208.695 48.7257C207.826 47.7802 207.279 46.5838 207.133 45.3083C206.987 44.0327 207.249 42.7437 207.881 41.6262L207.964 41.4839Z" fill="#2F2E41"/>
</g>
<defs>
<clipPath id="clip0">
<rect width="329" height="270" fill="white"/>
</clipPath>
</defs>
</svg>
